<svg width="49" height="49" viewBox="0 0 49 49" fill="none" xmlns="http://www.w3.org/2000/svg">
<path fill-rule="evenodd" clip-rule="evenodd" d="M0.371094 4.31592C0.371094 2.10678 2.16195 0.315918 4.37109 0.315918H44.3711C46.5802 0.315918 48.3711 2.10678 48.3711 4.31592V44.3159C48.3711 46.5251 46.5802 48.3159 44.3711 48.3159H4.37109C2.16195 48.3159 0.371094 46.5251 0.371094 44.3159V4.31592Z" fill="white"/>
<path d="M0.871094 4.31592C0.871094 2.38292 2.4381 0.815918 4.37109 0.815918H44.3711C46.3041 0.815918 47.8711 2.38292 47.8711 4.31592V44.3159C47.8711 46.2489 46.3041 47.8159 44.3711 47.8159H4.37109C2.4381 47.8159 0.871094 46.2489 0.871094 44.3159V4.31592Z" stroke="#E4E4E4" stroke-opacity="0.6"/>
<circle cx="31.6108" cy="24.3161" r="11.1276" fill="#F79E1B"/>
<circle cx="17.1315" cy="24.3161" r="11.1276" fill="#EB001B"/>
</svg>
